<svg width="44" height="44" viewBox="0 0 44 44" fill="none" xmlns="http://www.w3.org/2000/svg">
<circle cx="22" cy="22" r="21.5" transform="rotate(-90 22 22)" stroke="url(#paint0_linear_149_4)"/>
<g clip-path="url(#clip0_149_4)">
<mask id="mask0_149_4" style="mask-type:luminance" maskUnits="userSpaceOnUse" x="11" y="11" width="22" height="22">
<path d="M33 11H11V33H33V11Z" fill="white"/>
</mask>
<g mask="url(#mask0_149_4)">
<path d="M21.9571 30.6127C19.7369 30.6127 17.5166 29.7674 15.8264 28.0774C12.446 24.697 12.446 19.1966 15.8264 15.8162C17.2265 14.4162 19.0798 13.5315 21.0451 13.3247C22.9817 13.1211 24.9492 13.5788 26.5858 14.6137C26.7861 14.7405 26.8459 15.0058 26.7192 15.2062C26.5923 15.4066 26.3271 15.4666 26.1267 15.3397C23.0708 13.4071 18.9944 13.863 16.4339 16.4236C13.3883 19.469 13.3883 24.4245 16.4339 27.4699C19.4793 30.5154 24.4348 30.5155 27.4802 27.4699C30.0612 24.889 30.5204 20.9244 28.5967 17.829C28.4715 17.6276 28.5333 17.3627 28.7347 17.2375C28.9361 17.1123 29.201 17.1742 29.3262 17.3756C30.3415 19.0095 30.7853 20.9684 30.5756 22.8914C30.3628 24.844 29.4793 26.6858 28.0876 28.0774C26.3974 29.7676 24.1771 30.6127 21.9571 30.6127Z" fill="#1F0382"/>
<path d="M27.8028 16.567C27.692 16.567 27.5812 16.5244 27.4971 16.4391L27.4802 16.4222C27.3125 16.2545 27.3125 15.9826 27.4802 15.8147C27.6479 15.647 27.9198 15.647 28.0876 15.8147L28.1086 15.8359C28.2751 16.0047 28.2734 16.2767 28.1046 16.4431C28.0208 16.5257 27.9119 16.567 27.8028 16.567Z" fill="#1F0382"/>
<path d="M19.8851 21.5104C19.648 21.5104 19.4556 21.318 19.4556 21.0809C19.4556 20.7494 19.1859 20.4797 18.8544 20.4797C18.5229 20.4797 18.2532 20.7494 18.2532 21.0809C18.2532 21.318 18.0608 21.5104 17.8236 21.5104C17.5865 21.5104 17.3941 21.318 17.3941 21.0809C17.3941 20.2757 18.0492 19.6206 18.8544 19.6206C19.6596 19.6206 20.3147 20.2757 20.3147 21.0809C20.3147 21.318 20.1223 21.5104 19.8851 21.5104Z" fill="#1F0382"/>
<path d="M26.0904 21.5104C25.8532 21.5104 25.6609 21.318 25.6609 21.0809C25.6609 20.7494 25.3912 20.4797 25.0597 20.4797C24.7282 20.4797 24.4584 20.7494 24.4584 21.0809C24.4584 21.318 24.2661 21.5104 24.0289 21.5104C23.7918 21.5104 23.5994 21.318 23.5994 21.0809C23.5994 20.2757 24.2545 19.6206 25.0597 19.6206C25.8648 19.6206 26.5199 20.2757 26.5199 21.0809C26.5199 21.318 26.3276 21.5104 26.0904 21.5104Z" fill="#1F0382"/>
<path d="M21.9571 12.632C21.7199 12.632 21.5276 12.4396 21.5276 12.2025V11.3866C21.5276 11.1494 21.7199 10.957 21.9571 10.957C22.1942 10.957 22.3866 11.1494 22.3866 11.3866V12.2025C22.3866 12.4396 22.1942 12.632 21.9571 12.632Z" fill="#1F0382"/>
<path d="M21.9571 32.9566C21.7199 32.9566 21.5276 32.7642 21.5276 32.527V31.9794C21.5276 31.7422 21.7199 31.5498 21.9571 31.5498C22.1942 31.5498 22.3866 31.7422 22.3866 31.9794V32.527C22.3866 32.7642 22.1942 32.9566 21.9571 32.9566Z" fill="#1F0382"/>
<path d="M28.9387 15.4053C28.8287 15.4053 28.7189 15.3633 28.635 15.2796C28.4674 15.1117 28.4674 14.8398 28.635 14.6721L30.7294 12.5778C30.8971 12.4101 31.169 12.4101 31.3367 12.5778C31.5046 12.7456 31.5046 13.0175 31.3367 13.1852L29.2425 15.2796C29.1585 15.3633 29.0488 15.4053 28.9387 15.4053Z" fill="#1F0382"/>
<path d="M14.6013 29.7412C14.4884 29.7412 14.3776 29.6952 14.2979 29.6153C14.218 29.5354 14.172 29.4246 14.172 29.3117C14.172 29.1987 14.2178 29.0879 14.2979 29.008C14.3776 28.9282 14.4884 28.8821 14.6013 28.8821C14.7143 28.8821 14.8251 28.9282 14.905 29.008C14.9848 29.0879 15.0308 29.1987 15.0308 29.3117C15.0308 29.4246 14.985 29.5354 14.905 29.6153C14.8251 29.6952 14.7143 29.7412 14.6013 29.7412Z" fill="#1F0382"/>
<path d="M12.3916 31.9515C12.2817 31.9515 12.1717 31.9095 12.0878 31.8257C11.9201 31.6579 11.9201 31.386 12.0878 31.2183L13.1811 30.1251C13.3488 29.9574 13.6207 29.9574 13.7884 30.1251C13.9563 30.2928 13.9563 30.5647 13.7884 30.7324L12.6952 31.8257C12.6113 31.9095 12.5015 31.9515 12.3916 31.9515Z" fill="#1F0382"/>
<path d="M31.6604 32.0908C31.5505 32.0908 31.4405 32.0489 31.3568 31.965L29.2577 29.8658C29.09 29.6982 29.09 29.4262 29.2577 29.2586C29.4254 29.0909 29.6973 29.0909 29.8651 29.2586L31.964 31.3575C32.1319 31.5254 32.1319 31.7973 31.964 31.965C31.8803 32.0489 31.7703 32.0908 31.6604 32.0908Z" fill="#1F0382"/>
<path d="M14.3505 14.7796C14.2406 14.7796 14.1307 14.7376 14.0469 14.6537L11.9552 12.5621C11.7875 12.3945 11.7875 12.1224 11.9552 11.9547C12.1229 11.787 12.3948 11.787 12.5626 11.9547L14.6542 14.0462C14.8218 14.2139 14.8218 14.486 14.6542 14.6537C14.5702 14.7376 14.4605 14.7796 14.3505 14.7796Z" fill="#1F0382"/>
<path d="M32.5275 22.3864H31.828C31.5908 22.3864 31.3984 22.194 31.3984 21.9569C31.3984 21.7197 31.5908 21.5274 31.828 21.5274H32.5275C32.7647 21.5274 32.9571 21.7197 32.9571 21.9569C32.9571 22.194 32.7647 22.3864 32.5275 22.3864Z" fill="#1F0382"/>
<path d="M21.957 25.9663C20.8282 25.9663 19.9098 25.0479 19.9098 23.9191C19.9098 23.682 20.1021 23.4896 20.3393 23.4896C20.5764 23.4896 20.7688 23.682 20.7688 23.9191C20.7688 24.5742 21.3017 25.1073 21.957 25.1073C22.6122 25.1073 23.1451 24.5742 23.1451 23.9191C23.1451 23.682 23.3375 23.4896 23.5747 23.4896C23.8118 23.4896 24.0042 23.682 24.0042 23.9191C24.0042 25.0479 23.0857 25.9663 21.957 25.9663Z" fill="#1F0382"/>
<path d="M12.251 22.3864H11.3866C11.1494 22.3864 10.957 22.194 10.957 21.9569C10.957 21.7197 11.1494 21.5274 11.3866 21.5274H12.251C12.4881 21.5274 12.6803 21.7197 12.6803 21.9569C12.6803 22.194 12.4881 22.3864 12.251 22.3864Z" fill="#1F0382"/>
</g>
</g>
<defs>
<linearGradient id="paint0_linear_149_4" x1="15" y1="-1.96424e-07" x2="22" y2="44" gradientUnits="userSpaceOnUse">
<stop stop-color="#1F0382"/>
<stop offset="1" stop-color="#0096FF"/>
</linearGradient>
<clipPath id="clip0_149_4">
<rect width="22" height="22" fill="white" transform="translate(11 11)"/>
</clipPath>
</defs>
</svg>
