<svg width="44" height="44" viewBox="0 0 44 44" fill="none" xmlns="http://www.w3.org/2000/svg">
<circle cx="22" cy="22" r="21.5" transform="rotate(-90 22 22)" stroke="url(#paint0_linear_146_2)"/>
<g clip-path="url(#clip0_146_2)">
<mask id="mask0_146_2" style="mask-type:luminance" maskUnits="userSpaceOnUse" x="9" y="10" width="24" height="24">
<path d="M33 10H9V34H33V10Z" fill="white"/>
</mask>
<g mask="url(#mask0_146_2)">
<path d="M31.6958 14.2227C30.8533 13.38 29.7333 12.916 28.5418 12.916C27.3504 12.916 26.2303 13.38 25.3879 14.2227L21 18.6116L16.6122 14.2227C15.7697 13.38 14.6497 12.916 13.4582 12.916C12.2668 12.916 11.1467 13.3801 10.3043 14.2227C8.56524 15.9622 8.56524 18.7924 10.3043 20.5318L15.0237 25.2523C15.1116 25.3403 15.2309 25.3897 15.3552 25.3897C15.4796 25.3897 15.5989 25.3403 15.6868 25.2523L21.0001 19.9378L26.3133 25.2523C26.4013 25.3403 26.5205 25.3897 26.6449 25.3897C26.7692 25.3897 26.8885 25.3403 26.9764 25.2523L31.6958 20.5318C33.4347 18.7924 33.4347 15.9622 31.6958 14.2227ZM10.9674 14.8857C11.6327 14.2202 12.5173 13.8537 13.4582 13.8537C14.3991 13.8537 15.2838 14.2202 15.9491 14.8857L17.9635 16.9006L12.9811 21.8831L10.9674 19.8689C9.59381 18.495 9.59381 16.2596 10.9674 14.8857ZM15.3552 24.2578L13.6441 22.5462L18.6265 17.5638L18.7701 17.7074L20.3371 19.2747L15.3552 24.2578ZM26.6448 24.2578L21.663 19.2747L23.3735 17.5638L28.3559 22.5463L26.6448 24.2578ZM31.0327 19.8689L29.0189 21.8831L24.0365 16.9007L26.051 14.8857C26.7163 14.2202 27.6009 13.8537 28.5418 13.8537C29.4827 13.8537 30.3674 14.2202 31.0327 14.8857C32.4062 16.2595 32.4062 18.495 31.0327 19.8689Z" fill="#1F0382"/>
<path d="M21.3315 22.6568C21.1484 22.4738 20.8516 22.4738 20.6684 22.6568L15.2184 28.1068C14.7101 28.6151 14.5652 29.3435 14.8403 30.0076C15.1154 30.6716 15.7328 31.0842 16.4516 31.0842H25.5483C26.2671 31.0842 26.8845 30.6716 27.1596 30.0076C27.4347 29.3435 27.2898 28.6151 26.7816 28.1068L21.3315 22.6568ZM26.2933 29.6487C26.1642 29.9604 25.8857 30.1465 25.5482 30.1465H16.4516C16.1142 30.1465 15.8357 29.9604 15.7066 29.6487C15.5774 29.337 15.6428 29.0085 15.8814 28.7699L21 23.6514L26.1185 28.7699C26.3571 29.0084 26.4224 29.337 26.2933 29.6487Z" fill="#1F0382"/>
<path d="M21.9258 27.135H21.4686V26.6778C21.4686 26.4189 21.2587 26.209 20.9998 26.209C20.7409 26.209 20.531 26.4189 20.531 26.6778V27.135H20.0738C19.8149 27.135 19.605 27.3449 19.605 27.6038C19.605 27.8627 19.8149 28.0726 20.0738 28.0726H20.531V28.5298C20.531 28.7887 20.7409 28.9986 20.9998 28.9986C21.2587 28.9986 21.4686 28.7887 21.4686 28.5298V28.0726H21.9258C22.1846 28.0726 22.3946 27.8627 22.3946 27.6038C22.3946 27.3449 22.1847 27.135 21.9258 27.135Z" fill="#1F0382"/>
</g>
</g>
<defs>
<linearGradient id="paint0_linear_146_2" x1="15" y1="-1.96424e-07" x2="22" y2="44" gradientUnits="userSpaceOnUse">
<stop stop-color="#1F0382"/>
<stop offset="1" stop-color="#0096FF"/>
</linearGradient>
<clipPath id="clip0_146_2">
<rect width="24" height="24" fill="white" transform="translate(9 10)"/>
</clipPath>
</defs>
</svg>
