<svg width="44" height="44" viewBox="0 0 44 44" fill="none" xmlns="http://www.w3.org/2000/svg">
<circle cx="22" cy="22" r="21.5" transform="rotate(-90 22 22)" stroke="url(#paint0_linear_146_3)"/>
<g clip-path="url(#clip0_146_3)">
<path d="M31.137 21.1729C31.1394 21.1716 31.1396 21.1715 31.137 21.1729V21.1729Z" fill="#1F0382"/>
<path d="M31.0996 21.195C31.1142 21.1866 31.1238 21.181 31.1294 21.1777C31.1224 21.1818 31.111 21.1884 31.0996 21.195Z" fill="#1F0382"/>
<path d="M15.4486 25.004C15.4407 25.0143 15.4353 25.0212 15.4321 25.0252C15.4438 25.0101 15.476 24.9689 15.4486 25.004Z" fill="#1F0382"/>
<path d="M31.0664 21.2114C31.078 21.2052 31.088 21.1998 31.0964 21.1953C31.0794 21.2045 31.0631 21.2132 31.061 21.2143L31.0621 21.2138C31.0621 21.2138 31.0644 21.2125 31.0664 21.2114Z" fill="#1F0382"/>
<path d="M15.4303 25.0234C15.4268 25.0282 15.4276 25.0271 15.4303 25.0234V25.0234Z" fill="#1F0382"/>
<path d="M33.6675 17.7802C31.9177 14.9769 31.4318 13.923 29.3633 12.2642C29.0263 11.9963 28.5617 11.9248 28.144 12.0835C27.5683 12.3022 27.4793 12.7459 27.3923 13.0108C27.2587 13.4173 27.0108 13.986 26.7396 14.3319C26.3352 14.8472 25.7116 15.1928 25.0161 15.2741C24.4045 15.3455 24.0221 15.2257 22.9745 14.8888L22.1734 14.327C21.5747 13.9071 20.812 13.758 20.0806 13.9178C19.3975 14.0671 18.7597 14.4887 18.4073 15.1501L13.9917 23.4358C13.1385 24.2471 12.4068 25.0048 11.8168 25.6882C11.631 25.9034 11.8014 26.2166 12.0914 26.2166C12.4316 26.2166 12.247 26.0369 14.4246 23.9573C14.8604 23.9689 15.0686 24.0044 15.407 23.9594L14.8213 24.694C14.2193 25.4492 14.1419 26.4327 14.6193 27.2608C14.9125 27.7695 15.3753 28.1495 15.9235 28.3575C13.9849 29.1187 12.237 29.2589 10.7005 28.7726C10.7278 28.568 10.8594 28.1124 11.4229 27.2974C11.5275 27.1461 11.4797 26.9448 11.3161 26.8481C11.1525 26.7513 10.935 26.7955 10.8303 26.9468C10.4292 27.5269 9.81739 28.5187 10.052 29.1726C11.3221 32.719 18.5062 30.3928 21.7503 28.1702C24.9093 26.0055 27.265 23.0479 27.5055 22.9072C27.6424 22.8268 27.8205 22.8084 27.979 22.871C28.4772 23.0679 29.0551 23.036 29.5245 22.7852L31.4902 21.7355C31.6584 21.6457 31.716 21.4467 31.6189 21.2911C31.5218 21.1355 31.3066 21.0823 31.1384 21.1721C31.0973 21.194 31.0757 21.2055 31.0666 21.2104C31.0651 21.2113 31.0637 21.212 31.0621 21.2128C31.061 21.2134 31.0607 21.2136 31.0611 21.2133C30.9037 21.2974 30.459 21.5349 29.3336 22.1358C28.9832 22.3229 28.5882 22.3644 28.1429 22.2349C27.739 22.1174 27.2914 22.2061 26.9736 22.466C26.7613 22.6399 25.4015 24.3043 23.3035 26.1147C22.3505 26.9318 21.1433 27.8494 20.0448 28.436C18.4194 29.304 16.8209 29.8455 15.4337 30.1145C14.0405 30.3846 11.9668 30.5537 11.0572 29.5442C12.2843 29.8118 13.625 29.7436 15.0549 29.3396C16.2875 28.9912 17.2933 28.4703 17.2425 28.4949C22.4559 25.9777 25.2857 21.8316 26.6206 21.0296L32.6303 17.4197L33.0584 18.1055C33.5521 18.8965 33.2404 19.8233 32.5054 20.4005C32.3574 20.5168 32.3392 20.7221 32.465 20.8591C32.5907 20.996 32.8127 21.0129 32.9608 20.8965C33.3335 20.6038 33.6285 20.2288 33.814 19.8119C34.106 19.1549 34.0514 18.3951 33.6675 17.7802ZM28.4533 12.6709C28.7633 12.5823 28.9383 12.7769 29.2386 13.0278C29.6622 13.3819 30.0585 13.7653 30.4217 14.1734C29.3218 14.5576 28.1715 14.4552 27.553 14.3518C28.2476 13.1451 28.0014 12.8002 28.4533 12.6709ZM19.1067 15.3226L19.7895 15.646C19.9639 15.7286 20.1751 15.6633 20.2629 15.5047C20.3515 15.3447 20.283 15.1487 20.1101 15.0668L19.5977 14.8242C19.7883 14.6963 20.0065 14.6026 20.2424 14.551C21.3588 14.3071 21.9924 15.0752 22.3202 15.2464L20.7915 17.1747L18.6745 16.1206C19.0377 15.4436 19.0331 15.4372 19.1067 15.3226ZM18.3632 16.7045L19.9679 17.5035L17.8231 17.718L18.3632 16.7045ZM20.0158 18.1531L19.4521 18.8642L18.3774 18.317L20.0158 18.1531ZM17.379 18.5514L18.6876 19.2177L16.8625 19.5206L17.379 18.5514ZM18.6417 19.8864L18.1088 20.5586L17.2614 20.1155L18.6417 19.8864ZM16.39 20.4073L17.4008 20.9359L15.9061 21.3153L16.39 20.4073ZM17.2431 21.6506L16.7805 22.2341L16.1714 21.9226L17.2431 21.6506ZM14.836 23.3233L15.3972 22.2703L16.359 22.762C15.758 23.4484 14.8744 23.3175 14.836 23.3233ZM26.2375 20.4839C25.2544 21.0744 25.1957 21.4485 23.3589 23.211C22.7953 23.1148 22.3163 22.7789 22.0643 22.2981C21.7973 21.7885 21.8264 21.1947 22.1423 20.7095L23.3582 18.842C23.4584 18.688 23.4048 18.4882 23.2383 18.3955C23.0718 18.3027 22.8558 18.3523 22.7556 18.5063L21.5396 20.3738C20.7266 21.6226 21.3481 23.2312 22.7976 23.7383C21.1064 25.2945 19.0674 26.8646 16.984 27.8855C15.403 27.9375 14.4346 26.2755 15.3875 25.0802C15.4194 25.0402 15.4383 25.0166 15.4487 25.0035C15.5245 24.9084 15.8475 24.5033 16.9819 23.0805C17.4332 23.2986 17.4899 23.3717 17.642 23.3717C18.0045 23.3717 18.1293 22.9236 17.8124 22.7616L17.4013 22.5514L18.3066 21.4095C18.8525 21.6809 18.8914 21.7485 19.0472 21.7485C19.4084 21.7485 19.5338 21.3037 19.2206 21.1399L18.7255 20.8811L19.6541 19.7098C20.254 20.0015 20.2857 20.0635 20.4388 20.0635C20.8022 20.0635 20.9255 19.6145 20.6088 19.4532L20.0736 19.1807L20.997 18.0159C21.6383 18.322 21.6738 18.3843 21.8252 18.3843C22.1896 18.3843 22.313 17.9322 21.9922 17.7725L21.4171 17.4861L22.9408 15.564C23.4599 15.7023 23.8136 15.8849 24.4309 15.9332L23.604 17.2033C23.5038 17.3573 23.5575 17.5571 23.7239 17.6498C23.8902 17.7425 24.1064 17.6928 24.2066 17.539L25.276 15.8964C25.9833 15.7783 26.6367 15.444 27.1204 14.9346C28.3115 15.1956 29.7046 15.172 30.8676 14.7079C31.4016 15.3917 31.6151 15.8146 32.2781 16.8553L26.2375 20.4839Z" fill="#1F0382"/>
</g>
<defs>
<linearGradient id="paint0_linear_146_3" x1="15" y1="-1.96424e-07" x2="22" y2="44" gradientUnits="userSpaceOnUse">
<stop stop-color="#1F0382"/>
<stop offset="1" stop-color="#0096FF"/>
</linearGradient>
<clipPath id="clip0_146_3">
<rect width="24" height="19" fill="white" transform="translate(10 12)"/>
</clipPath>
</defs>
</svg>
